<mxfile host="Electron" modified="2023-05-03T17:12:22.712Z" agent="Mozilla/5.0 (Windows NT 10.0; Win64; x64) AppleWebKit/537.36 (KHTML, like Gecko) draw.io/21.1.2 Chrome/106.0.5249.199 Electron/21.4.3 Safari/537.36" etag="iZ1Etq_VRkRIaAmN64SF" version="21.1.2" type="device">
  <diagram name="Página-1" id="zqaoq0khi8khMR0mmgCo">
    <mxGraphModel dx="395" dy="798" grid="1" gridSize="10" guides="1" tooltips="1" connect="1" arrows="1" fold="1" page="1" pageScale="1" pageWidth="827" pageHeight="1169" math="0" shadow="0">
      <root>
        <mxCell id="0" />
        <mxCell id="1" parent="0" />
        <mxCell id="Cv6GCLbzU9fUbGzoY1pI-1" value="" style="rounded=0;whiteSpace=wrap;html=1;dashed=1;" parent="1" vertex="1">
          <mxGeometry x="930" y="430" width="210" height="115" as="geometry" />
        </mxCell>
        <mxCell id="Cv6GCLbzU9fUbGzoY1pI-2" value="" style="rounded=0;whiteSpace=wrap;html=1;dashed=1;" parent="1" vertex="1">
          <mxGeometry x="1240" y="422" width="610" height="440" as="geometry" />
        </mxCell>
        <mxCell id="Cv6GCLbzU9fUbGzoY1pI-3" value="&lt;font style=&quot;font-size: 18px;&quot;&gt;Fluxo de ativação&lt;/font&gt;" style="text;html=1;strokeColor=none;fillColor=none;align=center;verticalAlign=middle;whiteSpace=wrap;rounded=0;fontSize=16;" parent="1" vertex="1">
          <mxGeometry x="1028" y="111" width="172" height="34" as="geometry" />
        </mxCell>
        <mxCell id="Cv6GCLbzU9fUbGzoY1pI-4" value="" style="sketch=0;outlineConnect=0;fontColor=#232F3E;gradientColor=none;fillColor=#232F3D;strokeColor=none;dashed=0;verticalLabelPosition=bottom;verticalAlign=top;align=center;html=1;fontSize=12;fontStyle=0;aspect=fixed;pointerEvents=1;shape=mxgraph.aws4.client;" parent="1" vertex="1">
          <mxGeometry x="950" y="90" width="78" height="76" as="geometry" />
        </mxCell>
        <mxCell id="Cv6GCLbzU9fUbGzoY1pI-5" value="&lt;font style=&quot;font-size: 16px;&quot;&gt;Destino da API&lt;/font&gt;" style="text;html=1;strokeColor=none;fillColor=none;align=center;verticalAlign=middle;whiteSpace=wrap;rounded=0;fontSize=18;" parent="1" vertex="1">
          <mxGeometry x="1246.88" y="692.25" width="143.12" height="29.75" as="geometry" />
        </mxCell>
        <mxCell id="Cv6GCLbzU9fUbGzoY1pI-6" style="rounded=0;orthogonalLoop=1;jettySize=auto;html=1;" parent="1" edge="1">
          <mxGeometry relative="1" as="geometry">
            <mxPoint x="1323" y="362" as="sourcePoint" />
            <mxPoint x="1323" y="455" as="targetPoint" />
          </mxGeometry>
        </mxCell>
        <mxCell id="Cv6GCLbzU9fUbGzoY1pI-7" value="&lt;font style=&quot;font-size: 19px;&quot;&gt;&lt;b&gt;2&lt;/b&gt;&lt;/font&gt;" style="ellipse;whiteSpace=wrap;html=1;aspect=fixed;fillColor=#d5e8d4;strokeColor=#82b366;" parent="1" vertex="1">
          <mxGeometry x="983" y="380" width="42" height="42" as="geometry" />
        </mxCell>
        <mxCell id="Cv6GCLbzU9fUbGzoY1pI-8" value="&lt;font style=&quot;font-size: 19px;&quot;&gt;&lt;b&gt;4&lt;/b&gt;&lt;/font&gt;" style="ellipse;whiteSpace=wrap;html=1;aspect=fixed;fillColor=#d5e8d4;strokeColor=#82b366;" parent="1" vertex="1">
          <mxGeometry x="1270" y="365.5" width="42" height="42" as="geometry" />
        </mxCell>
        <mxCell id="Cv6GCLbzU9fUbGzoY1pI-9" value="" style="shape=image;verticalLabelPosition=bottom;labelBackgroundColor=default;verticalAlign=top;aspect=fixed;imageAspect=0;image=data:image/png,iVBORw0KGgoAAAANSUhEUgAAAJwAAACcCAMAAAC9ZjJ/AAAAY1BMVEX///8AAACNjY339/f8/Pzz8/NOTk5vb2++vr7S0tLv7++1tbXHx8fExMTh4eGvr69gYGA+Pj7Z2dmioqLn5+cWFhZaWlqHh4ctLS0NDQ0mJiZERERTU1MdHR05OTmXl5d5eXmmr3rzAAALaElEQVR4nO1c2aKiMAy9yCaggICguMD/f+XYdKGlKRTF5WHOy8xFKIc0TdI07d/f8/B3eetMos13/gsveAHVdZoZxbX6Brf0bsPNce7p57l5uR03x8m9j5OL4MXBZhIB3BR9nFxPXpvN3ZWRu/r3sxkBRsP8bTAm3s9mhIPdW8k3HN7PZgRCLpi/LfhPboz/5J7FxZ7c5f1sFPjJzZ7cLfmk99/21DFZkiN2ePshH1bW3GuG8zeHIjop38+sKs/Cox8s4o30MEQA5Zvjk3J41zWxitSqZAj77t37mPmJeE1dxvbPuYMiOO8aG4V4Rb93lz3q7hoh8HcEUDEboU7bPxV4Vz2fb/QLhG6HHVe2pni2iWLDVW//EhXPTwtXtky8V/JlA67Ir6WkASkP7Xupbc8tUn+BFdyCdl2F4SzYgDss/GTvRg3w0I/7C23pwjXP20Lb9da2SS5+J6dduDvRP7ulylJxgzi8Ou6Y5tLvFLJ0NnbCE0adfPWjG1lzwfJh5p14O9IYilg3bB7UeulVFu7mIXlHxr1sXhhj4u3yh/msxaZUZ74WOhODq66TRJnPt8kT1AgeBvimBU3bk9z2NUlAx4P5zy/hfpeo6vBh91csZ1SWY8tYXIamybBzQRKzoYFP7jpSLn7JvjBfKd+xzTtmWGKm2KeSurPoSP6ac22gDz3/i+pMuFIstpeHVc/Hm/RnM/38Dr5A6vzoeiutuHmuX6VFkVa+a7ofPvzMzUrWym42hh7bTb6htur7Eap9sgklHT+Fm2SPaAILano0agBdr6fksCV3XBYZjbTLB+2WcMm7savzmA0JMd2KoZUJRxFD4DApW/VtUXnDiHHcykgVxZ7K94AFDzvyS2sWDIjWYtbCkITnCWaAc6gayPRiZjdtTlLyrqNlSBQnkpYd70HedGW232dl1+TB/ShpYCJLw6WO+4YYzoI8dDaFPWB7ZoYzRxJI0sl2qaLkbrrLJKkGivQYO4QEqKTBxUKnn61i/FRE7Pc+wk2H50a9cDG1TAUSis5F7yEXvgdVeRdeOJur/JNjqn56vuInIuyQI6IESBx03QfaNWZp4JerheBEDJZHs+bZi8TNkvCo7EKNhX81yMeFByzCli17W2gZDEQ8PpRsGGWnqzdolqOLDkLKev5dLPR0EmuH6/HprjSl7sZ0GerRfRQ0LJiNPlwmhmbRxNXlrmF4CtT2rAkfAvvj+DK8dGPJ7WwzbBRk5xE7F6xxoH3jBjEnEJvPOlWXTl7vT0TsMTUrB8EmPaHioC5WUX3XNExUblRu+VPpDj8fyY4qv9ax1GjIEqVOdU7FKTerWZLN42AD83HHeuB6JBcbg1ebi0Y6w/i3RqOOWdqDmqffgYeP1afmJLJ9TW4EoWpAaItaf6kuPoKhNKPlKdW3V7j9/VG9E74iRK2aL1sZr7cwI3R59f5i6s+HMSsWYOGD75pxBXPCcj2wcjo3o6VG8+XMWnxWBNGhWkzn9VR0oHEzM3raqYttr45M6dgU5gWaJU4GzkTUt5k26xcH6gAQhfDhHap1f2Rmcof/EfYzK0DUdS9MBOOg0Q/vKJiuBpomEyPTwv/AO0y6fKoEz+ZyRkgUFW8U48IA7p+uNIMaXKZMMLS3VlLCC+UvhWho1PTuMih4BXPPc2MeiifUCz4LsA4n/lc9Vpi4gRF9Y31JR9DDkxisWLKC+ZWRy6LbqmbALxkZcYlHtwEapdN+WHFtI5K1xFVG747POKURLK7VyMAA79avuCQJLklEwUSOJ2r4Kj7jDJQR4HPhIbOIcsWhSgF6wsORbGiec+vG+uWHNIWgSwgs4qrrab5s94tWMAUCRzQJBYHUSbsMnqtfkxuLM5kPg06m039iFQxhJay36PFaZx4Oru+rC0PkAoWco3A11xLJOu+VPPtKaB5xPxSpg5qDKOwZfaIDAyr9lAzZulvOU+he1rbjViErohsn0EVccgkqoupi8g4Fs47DBbVI8k69EqjFyMCDdbpolqHAxUOwkRRhwN74AJtft+LC1hlhIxoYG9AMu0gThHjUS3zwQfsaIk80yx2zFdhBgzVy4NF3GA/I2mvmCQIMNDCDWak+JyXyRMsuudMbWgNyIZQcNiF0MQnBUXJQ8KnJCOa26LQ4JiZQdwSEsp41YGpzvDnSJGAr04h4mIWScwPMMkC6vcYCENB87WNgVRJz+hBz9R3vPEFOxGYQDOUGctRpaZLo0HHyx5IXWsTsKh03asfZwoSFh9EqOVrGZCIHQabWIaTRFtOhQrULDDCJxGpVYDiwWqUKJZfTO3By8G2adoEbx9L5uJGpUMqMSMP+7VByROfvJnKl9FEDMhM53EGk6FVmFB9GpCKjsvYRcmDTexM5oKF1IFzFXGXkYKanQJuWOHGWnFxC/WtFI9qdidwelRHupJaSG3pzf3Z40AIXg5ygpstIJMG1HjnbbiXvZsmJgOr9H+IhYOCt0q1LBgRQbrPygewqJD4mdwJKqwyIJaakG9GgZloldwvpu1cxJZBUsTPCce2M0EacXN0/EPabkvfOUiN8wowwuC+NHOq+ojE3KnJmStwHJMe0xH2RoY+6LxBHY+X4Q53c3dOM8BQ5g+MncTrq+A3xChYygbanBUMaMk1ZQG4iZNLX6wiIGugJTiTYzEZDB8ZuuIgcHmxWB0TBKYiM9FVsJEwHScmaARk+z0BuSZjuYPIcHtDGMTLBIWNKiUrJkzWd4LRaAwsmOLiTAuzwn/SpoZur6+Kk6CwgpJLjUX9+wdTQ6CAeTxA96LXLyKTaG9dYej5lr0+f8avKpHoAkecNzxh9KR0hwZiO4Ikc/Zc3J3IGeEBAT+R8MQUmAU+BfTN5KAFNHm6Qa1Jbb027qthzKQlrx6sXvpKwHkEkrNnv3031a1BT/V9dJMEgL5J8dXkJhbS89M2FOQOGhblvLmkaMCxpGheDi0QMgjctBhsgLQabltFJ2klwfs8yuuEmaRndVIAAEuXh2VsKEAyQCxBMpRudYnvfUbqBA1avB++GF734Z0UZ1y96mbprGHyGciFqnYVE1y4XMmBcLmQotHJHRXUrF1rh0AqtTCVqdI1mRHatEjUD9BI1U3FfozqPNYv7TPfpxX2mskivuSvzrPXKIk3AyiJNBaVeqvbhagWlBuAFpR8uxTUBL8X9bBGzCXTPGSLfyfJvH9vO+HT5twnG8u/JwvltnUsyfbVw3ghz4fzElgPiV89yUPXSlgMjfPOWg4nNGlQVFEPz/GYNMybrWo3bXKqT3jVPbnOZwPQ2F/MGoYK6hov65BMbhKagOVUV5q1VjN1JNTWLt1ZNYW5r1cSmNJ+7hvGPCzalTWJ2U9rUdj6XWYWL3k+22/kmMb+dD9sIKXKmW6ZhISoRi42Q6v3lbeFGSHwLKf8zEpV3r59QQZMSy7aQ4ptvQyZKHl047ebFSWLFvNqyzbf4tmWxg0y4ynOzeyGxE0k7ohdsWzZs+D7xYeRm3LYda/uoaYREqchasOHbtFW+4TJ3N8Nn51mxfELBj8h4Yqu8uibYpCIpO4ytajPc0OZ9tmx48GHVPXPIgHw8A33tnvXCcDyD2wWOjPZh2SIrGfLjGU7UahRLj2fQD7aI+HEUg+T9fe+MYJP63LO6tqvIwSw82II84hfKkSAeZyLHs35WKycZzMfhIoaWDZrnFsWSI0EQ7LnybuSQqtpu8pstuYJbyYP9rm1LmI6hceOizE/t7TyTgXrnMTR/w1kej17ZaXF+XEztxXYHDa2fPsZmGsrRRwtm1fEHjj4i6Aa7+cShUYc3H7mVls7wrmXHbZ21k0HegFKIYslBZfUHDioj8H74iDeCHz4cj+CHjxX88QMZ/5N7Fj9P7mcPnv3pI3t/+rDjnz4m+qcP2P7po8l/+1D3DxyH/w+JMpa+RYF3fQAAAABJRU5ErkJggg==;" parent="1" vertex="1">
          <mxGeometry x="1283.13" y="603" width="80" height="80" as="geometry" />
        </mxCell>
        <mxCell id="Cv6GCLbzU9fUbGzoY1pI-10" value="&lt;font style=&quot;font-size: 19px;&quot;&gt;&lt;b&gt;3&lt;/b&gt;&lt;/font&gt;" style="ellipse;whiteSpace=wrap;html=1;aspect=fixed;fillColor=#d5e8d4;strokeColor=#82b366;" parent="1" vertex="1">
          <mxGeometry x="1027" y="597" width="42" height="42" as="geometry" />
        </mxCell>
        <mxCell id="Cv6GCLbzU9fUbGzoY1pI-11" value="" style="group" parent="1" connectable="0" vertex="1">
          <mxGeometry x="1430" y="467" width="166.25" height="96" as="geometry" />
        </mxCell>
        <mxCell id="Cv6GCLbzU9fUbGzoY1pI-12" value="" style="sketch=0;outlineConnect=0;fontColor=#232F3E;gradientColor=none;fillColor=#B0084D;strokeColor=none;dashed=0;verticalLabelPosition=bottom;verticalAlign=top;align=center;html=1;fontSize=12;fontStyle=0;aspect=fixed;pointerEvents=1;shape=mxgraph.aws4.eventbridge_default_event_bus_resource;" parent="Cv6GCLbzU9fUbGzoY1pI-11" vertex="1">
          <mxGeometry x="44.11999999999989" width="78" height="53" as="geometry" />
        </mxCell>
        <mxCell id="Cv6GCLbzU9fUbGzoY1pI-13" value="&lt;font style=&quot;font-size: 18px;&quot;&gt;Event Bridge Bus - default&lt;/font&gt;" style="text;html=1;strokeColor=none;fillColor=none;align=center;verticalAlign=middle;whiteSpace=wrap;rounded=0;fontSize=18;" parent="Cv6GCLbzU9fUbGzoY1pI-11" vertex="1">
          <mxGeometry y="74" width="166.25" height="22" as="geometry" />
        </mxCell>
        <mxCell id="Cv6GCLbzU9fUbGzoY1pI-14" value="" style="sketch=0;points=[[0,0,0],[0.25,0,0],[0.5,0,0],[0.75,0,0],[1,0,0],[0,1,0],[0.25,1,0],[0.5,1,0],[0.75,1,0],[1,1,0],[0,0.25,0],[0,0.5,0],[0,0.75,0],[1,0.25,0],[1,0.5,0],[1,0.75,0]];outlineConnect=0;fontColor=#232F3E;gradientColor=#FF4F8B;gradientDirection=north;fillColor=#BC1356;strokeColor=#ffffff;dashed=0;verticalLabelPosition=bottom;verticalAlign=top;align=center;html=1;fontSize=12;fontStyle=0;aspect=fixed;shape=mxgraph.aws4.resourceIcon;resIcon=mxgraph.aws4.eventbridge;" parent="1" vertex="1">
          <mxGeometry x="1754.5" y="387.5" width="78" height="78" as="geometry" />
        </mxCell>
        <mxCell id="Cv6GCLbzU9fUbGzoY1pI-15" value="&lt;font style=&quot;font-size: 18px;&quot;&gt;Amazon Eventbridge&lt;/font&gt;" style="text;html=1;strokeColor=none;fillColor=none;align=center;verticalAlign=middle;whiteSpace=wrap;rounded=0;fontSize=18;" parent="1" vertex="1">
          <mxGeometry x="1752" y="471.5" width="83" height="30" as="geometry" />
        </mxCell>
        <mxCell id="Cv6GCLbzU9fUbGzoY1pI-16" style="rounded=0;orthogonalLoop=1;jettySize=auto;html=1;" parent="1" edge="1">
          <mxGeometry relative="1" as="geometry">
            <mxPoint x="1380.9999999999998" y="503.5" as="sourcePoint" />
            <mxPoint x="1440" y="503.5" as="targetPoint" />
          </mxGeometry>
        </mxCell>
        <mxCell id="Cv6GCLbzU9fUbGzoY1pI-17" value="" style="endArrow=none;html=1;rounded=0;endFill=0;startArrow=classic;startFill=1;" parent="1" edge="1">
          <mxGeometry width="50" height="50" relative="1" as="geometry">
            <mxPoint x="1688.71" y="742" as="sourcePoint" />
            <mxPoint x="1688.71" y="702" as="targetPoint" />
          </mxGeometry>
        </mxCell>
        <mxCell id="Cv6GCLbzU9fUbGzoY1pI-18" value="&lt;font style=&quot;font-size: 19px;&quot;&gt;Sistema do comerciante&lt;/font&gt;" style="rounded=0;whiteSpace=wrap;html=1;fillColor=#f5f5f5;fontColor=#333333;strokeColor=#666666;" parent="1" vertex="1">
          <mxGeometry x="1629" y="790" width="120" height="60" as="geometry" />
        </mxCell>
        <mxCell id="Cv6GCLbzU9fUbGzoY1pI-19" value="" style="shape=image;verticalLabelPosition=bottom;labelBackgroundColor=default;verticalAlign=top;aspect=fixed;imageAspect=0;image=data:image/png,iVBORw0KGgoAAAANSUhEUgAAAJwAAACcCAMAAAC9ZjJ/AAAAY1BMVEX///8AAACNjY339/f8/Pzz8/NOTk5vb2++vr7S0tLv7++1tbXHx8fExMTh4eGvr69gYGA+Pj7Z2dmioqLn5+cWFhZaWlqHh4ctLS0NDQ0mJiZERERTU1MdHR05OTmXl5d5eXmmr3rzAAALaElEQVR4nO1c2aKiMAy9yCaggICguMD/f+XYdKGlKRTF5WHOy8xFKIc0TdI07d/f8/B3eetMos13/gsveAHVdZoZxbX6Brf0bsPNce7p57l5uR03x8m9j5OL4MXBZhIB3BR9nFxPXpvN3ZWRu/r3sxkBRsP8bTAm3s9mhIPdW8k3HN7PZgRCLpi/LfhPboz/5J7FxZ7c5f1sFPjJzZ7cLfmk99/21DFZkiN2ePshH1bW3GuG8zeHIjop38+sKs/Cox8s4o30MEQA5Zvjk3J41zWxitSqZAj77t37mPmJeE1dxvbPuYMiOO8aG4V4Rb93lz3q7hoh8HcEUDEboU7bPxV4Vz2fb/QLhG6HHVe2pni2iWLDVW//EhXPTwtXtky8V/JlA67Ir6WkASkP7Xupbc8tUn+BFdyCdl2F4SzYgDss/GTvRg3w0I/7C23pwjXP20Lb9da2SS5+J6dduDvRP7ulylJxgzi8Ou6Y5tLvFLJ0NnbCE0adfPWjG1lzwfJh5p14O9IYilg3bB7UeulVFu7mIXlHxr1sXhhj4u3yh/msxaZUZ74WOhODq66TRJnPt8kT1AgeBvimBU3bk9z2NUlAx4P5zy/hfpeo6vBh91csZ1SWY8tYXIamybBzQRKzoYFP7jpSLn7JvjBfKd+xzTtmWGKm2KeSurPoSP6ac22gDz3/i+pMuFIstpeHVc/Hm/RnM/38Dr5A6vzoeiutuHmuX6VFkVa+a7ofPvzMzUrWym42hh7bTb6htur7Eap9sgklHT+Fm2SPaAILano0agBdr6fksCV3XBYZjbTLB+2WcMm7savzmA0JMd2KoZUJRxFD4DApW/VtUXnDiHHcykgVxZ7K94AFDzvyS2sWDIjWYtbCkITnCWaAc6gayPRiZjdtTlLyrqNlSBQnkpYd70HedGW232dl1+TB/ShpYCJLw6WO+4YYzoI8dDaFPWB7ZoYzRxJI0sl2qaLkbrrLJKkGivQYO4QEqKTBxUKnn61i/FRE7Pc+wk2H50a9cDG1TAUSis5F7yEXvgdVeRdeOJur/JNjqn56vuInIuyQI6IESBx03QfaNWZp4JerheBEDJZHs+bZi8TNkvCo7EKNhX81yMeFByzCli17W2gZDEQ8PpRsGGWnqzdolqOLDkLKev5dLPR0EmuH6/HprjSl7sZ0GerRfRQ0LJiNPlwmhmbRxNXlrmF4CtT2rAkfAvvj+DK8dGPJ7WwzbBRk5xE7F6xxoH3jBjEnEJvPOlWXTl7vT0TsMTUrB8EmPaHioC5WUX3XNExUblRu+VPpDj8fyY4qv9ax1GjIEqVOdU7FKTerWZLN42AD83HHeuB6JBcbg1ebi0Y6w/i3RqOOWdqDmqffgYeP1afmJLJ9TW4EoWpAaItaf6kuPoKhNKPlKdW3V7j9/VG9E74iRK2aL1sZr7cwI3R59f5i6s+HMSsWYOGD75pxBXPCcj2wcjo3o6VG8+XMWnxWBNGhWkzn9VR0oHEzM3raqYttr45M6dgU5gWaJU4GzkTUt5k26xcH6gAQhfDhHap1f2Rmcof/EfYzK0DUdS9MBOOg0Q/vKJiuBpomEyPTwv/AO0y6fKoEz+ZyRkgUFW8U48IA7p+uNIMaXKZMMLS3VlLCC+UvhWho1PTuMih4BXPPc2MeiifUCz4LsA4n/lc9Vpi4gRF9Y31JR9DDkxisWLKC+ZWRy6LbqmbALxkZcYlHtwEapdN+WHFtI5K1xFVG747POKURLK7VyMAA79avuCQJLklEwUSOJ2r4Kj7jDJQR4HPhIbOIcsWhSgF6wsORbGiec+vG+uWHNIWgSwgs4qrrab5s94tWMAUCRzQJBYHUSbsMnqtfkxuLM5kPg06m039iFQxhJay36PFaZx4Oru+rC0PkAoWco3A11xLJOu+VPPtKaB5xPxSpg5qDKOwZfaIDAyr9lAzZulvOU+he1rbjViErohsn0EVccgkqoupi8g4Fs47DBbVI8k69EqjFyMCDdbpolqHAxUOwkRRhwN74AJtft+LC1hlhIxoYG9AMu0gThHjUS3zwQfsaIk80yx2zFdhBgzVy4NF3GA/I2mvmCQIMNDCDWak+JyXyRMsuudMbWgNyIZQcNiF0MQnBUXJQ8KnJCOa26LQ4JiZQdwSEsp41YGpzvDnSJGAr04h4mIWScwPMMkC6vcYCENB87WNgVRJz+hBz9R3vPEFOxGYQDOUGctRpaZLo0HHyx5IXWsTsKh03asfZwoSFh9EqOVrGZCIHQabWIaTRFtOhQrULDDCJxGpVYDiwWqUKJZfTO3By8G2adoEbx9L5uJGpUMqMSMP+7VByROfvJnKl9FEDMhM53EGk6FVmFB9GpCKjsvYRcmDTexM5oKF1IFzFXGXkYKanQJuWOHGWnFxC/WtFI9qdidwelRHupJaSG3pzf3Z40AIXg5ygpstIJMG1HjnbbiXvZsmJgOr9H+IhYOCt0q1LBgRQbrPygewqJD4mdwJKqwyIJaakG9GgZloldwvpu1cxJZBUsTPCce2M0EacXN0/EPabkvfOUiN8wowwuC+NHOq+ojE3KnJmStwHJMe0xH2RoY+6LxBHY+X4Q53c3dOM8BQ5g+MncTrq+A3xChYygbanBUMaMk1ZQG4iZNLX6wiIGugJTiTYzEZDB8ZuuIgcHmxWB0TBKYiM9FVsJEwHScmaARk+z0BuSZjuYPIcHtDGMTLBIWNKiUrJkzWd4LRaAwsmOLiTAuzwn/SpoZur6+Kk6CwgpJLjUX9+wdTQ6CAeTxA96LXLyKTaG9dYej5lr0+f8avKpHoAkecNzxh9KR0hwZiO4Ikc/Zc3J3IGeEBAT+R8MQUmAU+BfTN5KAFNHm6Qa1Jbb027qthzKQlrx6sXvpKwHkEkrNnv3031a1BT/V9dJMEgL5J8dXkJhbS89M2FOQOGhblvLmkaMCxpGheDi0QMgjctBhsgLQabltFJ2klwfs8yuuEmaRndVIAAEuXh2VsKEAyQCxBMpRudYnvfUbqBA1avB++GF734Z0UZ1y96mbprGHyGciFqnYVE1y4XMmBcLmQotHJHRXUrF1rh0AqtTCVqdI1mRHatEjUD9BI1U3FfozqPNYv7TPfpxX2mskivuSvzrPXKIk3AyiJNBaVeqvbhagWlBuAFpR8uxTUBL8X9bBGzCXTPGSLfyfJvH9vO+HT5twnG8u/JwvltnUsyfbVw3ghz4fzElgPiV89yUPXSlgMjfPOWg4nNGlQVFEPz/GYNMybrWo3bXKqT3jVPbnOZwPQ2F/MGoYK6hov65BMbhKagOVUV5q1VjN1JNTWLt1ZNYW5r1cSmNJ+7hvGPCzalTWJ2U9rUdj6XWYWL3k+22/kmMb+dD9sIKXKmW6ZhISoRi42Q6v3lbeFGSHwLKf8zEpV3r59QQZMSy7aQ4ptvQyZKHl047ebFSWLFvNqyzbf4tmWxg0y4ynOzeyGxE0k7ohdsWzZs+D7xYeRm3LYda/uoaYREqchasOHbtFW+4TJ3N8Nn51mxfELBj8h4Yqu8uibYpCIpO4ytajPc0OZ9tmx48GHVPXPIgHw8A33tnvXCcDyD2wWOjPZh2SIrGfLjGU7UahRLj2fQD7aI+HEUg+T9fe+MYJP63LO6tqvIwSw82II84hfKkSAeZyLHs35WKycZzMfhIoaWDZrnFsWSI0EQ7LnybuSQqtpu8pstuYJbyYP9rm1LmI6hceOizE/t7TyTgXrnMTR/w1kej17ZaXF+XEztxXYHDa2fPsZmGsrRRwtm1fEHjj4i6Aa7+cShUYc3H7mVls7wrmXHbZ21k0HegFKIYslBZfUHDioj8H74iDeCHz4cj+CHjxX88QMZ/5N7Fj9P7mcPnv3pI3t/+rDjnz4m+qcP2P7po8l/+1D3DxyH/w+JMpa+RYF3fQAAAABJRU5ErkJggg==;" parent="1" vertex="1">
          <mxGeometry x="1664" y="745" width="50" height="50" as="geometry" />
        </mxCell>
        <mxCell id="Cv6GCLbzU9fUbGzoY1pI-20" style="rounded=0;orthogonalLoop=1;jettySize=auto;html=1;entryX=0.538;entryY=0.029;entryDx=0;entryDy=0;entryPerimeter=0;" parent="1" edge="1">
          <mxGeometry relative="1" as="geometry">
            <mxPoint x="1692" y="573" as="sourcePoint" />
            <mxPoint x="1691.9640000000002" y="613.0120000000001" as="targetPoint" />
          </mxGeometry>
        </mxCell>
        <mxCell id="Cv6GCLbzU9fUbGzoY1pI-21" style="rounded=0;orthogonalLoop=1;jettySize=auto;html=1;" parent="1" edge="1">
          <mxGeometry relative="1" as="geometry">
            <mxPoint x="1579.9999999999998" y="505.62" as="sourcePoint" />
            <mxPoint x="1639" y="505.62" as="targetPoint" />
          </mxGeometry>
        </mxCell>
        <mxCell id="Cv6GCLbzU9fUbGzoY1pI-22" value="" style="group" parent="1" connectable="0" vertex="1">
          <mxGeometry x="1240" y="206.5" width="233" height="140" as="geometry" />
        </mxCell>
        <mxCell id="Cv6GCLbzU9fUbGzoY1pI-23" value="&lt;font style=&quot;font-size: 18px;&quot;&gt;Sistema de entrega core&lt;/font&gt;" style="text;html=1;strokeColor=none;fillColor=none;align=center;verticalAlign=middle;whiteSpace=wrap;rounded=0;fontSize=18;" parent="Cv6GCLbzU9fUbGzoY1pI-22" vertex="1">
          <mxGeometry x="7.25" y="4.5" width="142.75" height="24" as="geometry" />
        </mxCell>
        <mxCell id="Cv6GCLbzU9fUbGzoY1pI-24" value="" style="rounded=0;whiteSpace=wrap;html=1;dashed=1;" parent="Cv6GCLbzU9fUbGzoY1pI-22" vertex="1">
          <mxGeometry y="40" width="230.75" height="100" as="geometry" />
        </mxCell>
        <mxCell id="Cv6GCLbzU9fUbGzoY1pI-25" value="" style="group" parent="Cv6GCLbzU9fUbGzoY1pI-22" connectable="0" vertex="1">
          <mxGeometry x="150" width="83" height="116" as="geometry" />
        </mxCell>
        <mxCell id="Cv6GCLbzU9fUbGzoY1pI-26" value="" style="sketch=0;points=[[0,0,0],[0.25,0,0],[0.5,0,0],[0.75,0,0],[1,0,0],[0,1,0],[0.25,1,0],[0.5,1,0],[0.75,1,0],[1,1,0],[0,0.25,0],[0,0.5,0],[0,0.75,0],[1,0.25,0],[1,0.5,0],[1,0.75,0]];outlineConnect=0;fontColor=#232F3E;gradientColor=#FF4F8B;gradientDirection=north;fillColor=#BC1356;strokeColor=#ffffff;dashed=0;verticalLabelPosition=bottom;verticalAlign=top;align=center;html=1;fontSize=12;fontStyle=0;aspect=fixed;shape=mxgraph.aws4.resourceIcon;resIcon=mxgraph.aws4.sqs;" parent="Cv6GCLbzU9fUbGzoY1pI-25" vertex="1">
          <mxGeometry x="2.5" width="78" height="78" as="geometry" />
        </mxCell>
        <mxCell id="Cv6GCLbzU9fUbGzoY1pI-27" value="&lt;font style=&quot;font-size: 18px;&quot;&gt;SQS&lt;/font&gt;" style="text;html=1;strokeColor=none;fillColor=none;align=center;verticalAlign=middle;whiteSpace=wrap;rounded=0;fontSize=18;" parent="Cv6GCLbzU9fUbGzoY1pI-25" vertex="1">
          <mxGeometry y="79" width="83" height="30" as="geometry" />
        </mxCell>
        <mxCell id="Cv6GCLbzU9fUbGzoY1pI-28" value="" style="group" parent="Cv6GCLbzU9fUbGzoY1pI-22" connectable="0" vertex="1">
          <mxGeometry x="7.25" y="53" width="147" height="74" as="geometry" />
        </mxCell>
        <mxCell id="Cv6GCLbzU9fUbGzoY1pI-29" value="" style="sketch=0;outlineConnect=0;fontColor=#232F3E;gradientColor=none;fillColor=#B0084D;strokeColor=none;dashed=0;verticalLabelPosition=bottom;verticalAlign=top;align=center;html=1;fontSize=12;fontStyle=0;aspect=fixed;pointerEvents=1;shape=mxgraph.aws4.queue;" parent="Cv6GCLbzU9fUbGzoY1pI-28" vertex="1">
          <mxGeometry x="34.36999999999989" width="78" height="47" as="geometry" />
        </mxCell>
        <mxCell id="Cv6GCLbzU9fUbGzoY1pI-30" value="&lt;font style=&quot;font-size: 18px;&quot;&gt;pedido-entregue&lt;/font&gt;" style="text;html=1;strokeColor=none;fillColor=none;align=center;verticalAlign=middle;whiteSpace=wrap;rounded=0;fontSize=18;" parent="Cv6GCLbzU9fUbGzoY1pI-28" vertex="1">
          <mxGeometry y="52" width="147" height="22" as="geometry" />
        </mxCell>
        <mxCell id="Cv6GCLbzU9fUbGzoY1pI-31" value="&lt;font style=&quot;font-size: 18px;&quot;&gt;Source&lt;/font&gt;" style="text;html=1;strokeColor=none;fillColor=none;align=center;verticalAlign=middle;whiteSpace=wrap;rounded=0;fontSize=18;" parent="1" vertex="1">
          <mxGeometry x="1326.1200000000001" y="375.5" width="74.13" height="22" as="geometry" />
        </mxCell>
        <mxCell id="Cv6GCLbzU9fUbGzoY1pI-32" value="" style="group" parent="1" connectable="0" vertex="1">
          <mxGeometry x="1650" y="470" width="84" height="95" as="geometry" />
        </mxCell>
        <mxCell id="Cv6GCLbzU9fUbGzoY1pI-33" value="" style="sketch=0;outlineConnect=0;fontColor=#232F3E;gradientColor=none;fillColor=#B0084D;strokeColor=none;dashed=0;verticalLabelPosition=bottom;verticalAlign=top;align=center;html=1;fontSize=12;fontStyle=0;aspect=fixed;pointerEvents=1;shape=mxgraph.aws4.rule_3;" parent="Cv6GCLbzU9fUbGzoY1pI-32" vertex="1">
          <mxGeometry x="6" width="78" height="68" as="geometry" />
        </mxCell>
        <mxCell id="Cv6GCLbzU9fUbGzoY1pI-34" value="&lt;font style=&quot;font-size: 18px;&quot;&gt;Regra&lt;/font&gt;" style="text;html=1;strokeColor=none;fillColor=none;align=center;verticalAlign=middle;whiteSpace=wrap;rounded=0;fontSize=18;" parent="Cv6GCLbzU9fUbGzoY1pI-32" vertex="1">
          <mxGeometry y="73" width="74.13" height="22" as="geometry" />
        </mxCell>
        <mxCell id="Cv6GCLbzU9fUbGzoY1pI-35" value="&lt;font style=&quot;font-size: 18px;&quot;&gt;Target&lt;/font&gt;" style="text;html=1;strokeColor=none;fillColor=none;align=center;verticalAlign=middle;whiteSpace=wrap;rounded=0;fontSize=18;" parent="1" vertex="1">
          <mxGeometry x="1370" y="506.5" width="74.13" height="22" as="geometry" />
        </mxCell>
        <mxCell id="Cv6GCLbzU9fUbGzoY1pI-36" value="&lt;font style=&quot;font-size: 18px;&quot;&gt;Por comerciante&lt;/font&gt;" style="text;html=1;strokeColor=none;fillColor=none;align=center;verticalAlign=middle;whiteSpace=wrap;rounded=0;fontSize=18;" parent="1" vertex="1">
          <mxGeometry x="1500" y="624.25" width="74.13" height="41" as="geometry" />
        </mxCell>
        <mxCell id="Cv6GCLbzU9fUbGzoY1pI-37" value="" style="group" parent="1" connectable="0" vertex="1">
          <mxGeometry x="930" y="192" width="210" height="176" as="geometry" />
        </mxCell>
        <mxCell id="Cv6GCLbzU9fUbGzoY1pI-38" value="" style="rounded=0;whiteSpace=wrap;html=1;dashed=1;" parent="Cv6GCLbzU9fUbGzoY1pI-37" vertex="1">
          <mxGeometry y="36" width="210" height="140" as="geometry" />
        </mxCell>
        <mxCell id="Cv6GCLbzU9fUbGzoY1pI-39" value="" style="sketch=0;points=[[0,0,0],[0.25,0,0],[0.5,0,0],[0.75,0,0],[1,0,0],[0,1,0],[0.25,1,0],[0.5,1,0],[0.75,1,0],[1,1,0],[0,0.25,0],[0,0.5,0],[0,0.75,0],[1,0.25,0],[1,0.5,0],[1,0.75,0]];outlineConnect=0;fontColor=#232F3E;gradientColor=#FF4F8B;gradientDirection=north;fillColor=#BC1356;strokeColor=#ffffff;dashed=0;verticalLabelPosition=bottom;verticalAlign=top;align=center;html=1;fontSize=12;fontStyle=0;aspect=fixed;shape=mxgraph.aws4.resourceIcon;resIcon=mxgraph.aws4.api_gateway;" parent="Cv6GCLbzU9fUbGzoY1pI-37" vertex="1">
          <mxGeometry x="121" width="78" height="78" as="geometry" />
        </mxCell>
        <mxCell id="Cv6GCLbzU9fUbGzoY1pI-40" value="&lt;font style=&quot;font-size: 18px;&quot;&gt;Gateway da API&lt;/font&gt;" style="text;html=1;strokeColor=none;fillColor=none;align=center;verticalAlign=middle;whiteSpace=wrap;rounded=0;fontSize=18;" parent="Cv6GCLbzU9fUbGzoY1pI-37" vertex="1">
          <mxGeometry x="110" y="78" width="100" height="44.5" as="geometry" />
        </mxCell>
        <mxCell id="Cv6GCLbzU9fUbGzoY1pI-41" value="" style="sketch=0;outlineConnect=0;fontColor=#232F3E;gradientColor=none;fillColor=#B0084D;strokeColor=none;dashed=0;verticalLabelPosition=bottom;verticalAlign=top;align=center;html=1;fontSize=12;fontStyle=0;aspect=fixed;pointerEvents=1;shape=mxgraph.aws4.endpoint;" parent="Cv6GCLbzU9fUbGzoY1pI-37" vertex="1">
          <mxGeometry x="20" y="57.25" width="78" height="78" as="geometry" />
        </mxCell>
        <mxCell id="Cv6GCLbzU9fUbGzoY1pI-42" value="&lt;font style=&quot;font-size: 18px;&quot;&gt;POST /registros&lt;/font&gt;" style="text;html=1;strokeColor=none;fillColor=none;align=center;verticalAlign=middle;whiteSpace=wrap;rounded=0;fontSize=18;" parent="Cv6GCLbzU9fUbGzoY1pI-37" vertex="1">
          <mxGeometry y="141" width="147" height="30" as="geometry" />
        </mxCell>
        <mxCell id="Cv6GCLbzU9fUbGzoY1pI-43" value="" style="endArrow=classic;startArrow=classic;html=1;rounded=0;" parent="Cv6GCLbzU9fUbGzoY1pI-37" edge="1">
          <mxGeometry width="50" height="50" relative="1" as="geometry">
            <mxPoint x="59.01999999999998" y="27" as="sourcePoint" />
            <mxPoint x="59" y="-20" as="targetPoint" />
          </mxGeometry>
        </mxCell>
        <mxCell id="Cv6GCLbzU9fUbGzoY1pI-44" value="&lt;font style=&quot;font-size: 19px;&quot;&gt;&lt;b&gt;1&lt;/b&gt;&lt;/font&gt;" style="ellipse;whiteSpace=wrap;html=1;aspect=fixed;fillColor=#d5e8d4;strokeColor=#82b366;" parent="Cv6GCLbzU9fUbGzoY1pI-37" vertex="1">
          <mxGeometry x="5" y="-16" width="42" height="42" as="geometry" />
        </mxCell>
        <mxCell id="Cv6GCLbzU9fUbGzoY1pI-45" style="rounded=0;orthogonalLoop=1;jettySize=auto;html=1;" parent="1" edge="1">
          <mxGeometry relative="1" as="geometry">
            <mxPoint x="1035.08" y="374" as="sourcePoint" />
            <mxPoint x="1034.67" y="424" as="targetPoint" />
          </mxGeometry>
        </mxCell>
        <mxCell id="Cv6GCLbzU9fUbGzoY1pI-46" style="rounded=0;orthogonalLoop=1;jettySize=auto;html=1;" parent="1" edge="1">
          <mxGeometry relative="1" as="geometry">
            <mxPoint x="1020" y="560" as="sourcePoint" />
            <mxPoint x="1260" y="645" as="targetPoint" />
            <Array as="points">
              <mxPoint x="1020" y="645" />
            </Array>
          </mxGeometry>
        </mxCell>
        <mxCell id="Cv6GCLbzU9fUbGzoY1pI-47" value="" style="endArrow=none;dashed=1;html=1;dashPattern=1 3;strokeWidth=3;rounded=0;" parent="1" edge="1">
          <mxGeometry width="50" height="50" relative="1" as="geometry">
            <mxPoint x="1404.13" y="666" as="sourcePoint" />
            <mxPoint x="1650" y="565" as="targetPoint" />
          </mxGeometry>
        </mxCell>
        <mxCell id="Cv6GCLbzU9fUbGzoY1pI-48" value="&lt;font style=&quot;font-size: 19px;&quot;&gt;&lt;b&gt;6&lt;/b&gt;&lt;/font&gt;" style="ellipse;whiteSpace=wrap;html=1;aspect=fixed;fillColor=#d5e8d4;strokeColor=#82b366;" parent="1" vertex="1">
          <mxGeometry x="1590" y="458.5" width="42" height="42" as="geometry" />
        </mxCell>
        <mxCell id="Cv6GCLbzU9fUbGzoY1pI-49" value="&lt;font style=&quot;font-size: 19px;&quot;&gt;&lt;b&gt;5&lt;/b&gt;&lt;/font&gt;" style="ellipse;whiteSpace=wrap;html=1;aspect=fixed;fillColor=#d5e8d4;strokeColor=#82b366;" parent="1" vertex="1">
          <mxGeometry x="1388" y="458.5" width="42" height="42" as="geometry" />
        </mxCell>
        <mxCell id="Cv6GCLbzU9fUbGzoY1pI-50" value="" style="group" parent="1" connectable="0" vertex="1">
          <mxGeometry x="1240" y="460.5" width="166.25" height="98" as="geometry" />
        </mxCell>
        <mxCell id="Cv6GCLbzU9fUbGzoY1pI-51" value="" style="sketch=0;outlineConnect=0;fontColor=#232F3E;gradientColor=none;fillColor=#B0084D;strokeColor=none;dashed=0;verticalLabelPosition=bottom;verticalAlign=top;align=center;html=1;fontSize=12;fontStyle=0;aspect=fixed;pointerEvents=1;shape=mxgraph.aws4.eventbridge_pipes;" parent="Cv6GCLbzU9fUbGzoY1pI-50" vertex="1">
          <mxGeometry x="44.11999999999989" width="78" height="78" as="geometry" />
        </mxCell>
        <mxCell id="Cv6GCLbzU9fUbGzoY1pI-52" value="&lt;font style=&quot;font-size: 18px;&quot;&gt;Event Bridge Pipe&lt;/font&gt;" style="text;html=1;strokeColor=none;fillColor=none;align=center;verticalAlign=middle;whiteSpace=wrap;rounded=0;fontSize=18;" parent="Cv6GCLbzU9fUbGzoY1pI-50" vertex="1">
          <mxGeometry y="76" width="166.25" height="22" as="geometry" />
        </mxCell>
        <mxCell id="Cv6GCLbzU9fUbGzoY1pI-53" value="" style="sketch=0;outlineConnect=0;fontColor=#232F3E;gradientColor=none;fillColor=#B0084D;strokeColor=none;dashed=0;verticalLabelPosition=bottom;verticalAlign=top;align=center;html=1;fontSize=12;fontStyle=0;aspect=fixed;pointerEvents=1;shape=mxgraph.aws4.http_notification;" parent="1" vertex="1">
          <mxGeometry x="1650" y="619.75" width="78" height="78" as="geometry" />
        </mxCell>
        <mxCell id="Cv6GCLbzU9fUbGzoY1pI-54" value="&lt;font style=&quot;font-size: 18px;&quot;&gt;Notificação HTTPS&lt;/font&gt;" style="text;html=1;strokeColor=none;fillColor=none;align=center;verticalAlign=middle;whiteSpace=wrap;rounded=0;fontSize=18;" parent="1" vertex="1">
          <mxGeometry x="1708" y="716" width="74.13" height="22" as="geometry" />
        </mxCell>
        <mxCell id="Cv6GCLbzU9fUbGzoY1pI-55" value="&lt;font style=&quot;font-size: 19px;&quot;&gt;&lt;b&gt;7&lt;/b&gt;&lt;/font&gt;" style="ellipse;whiteSpace=wrap;html=1;aspect=fixed;fillColor=#d5e8d4;strokeColor=#82b366;" parent="1" vertex="1">
          <mxGeometry x="1619.9999999999998" y="712" width="42" height="42" as="geometry" />
        </mxCell>
        <mxCell id="Cv6GCLbzU9fUbGzoY1pI-56" value="" style="group" parent="1" connectable="0" vertex="1">
          <mxGeometry x="944" y="446" width="136" height="90" as="geometry" />
        </mxCell>
        <mxCell id="Cv6GCLbzU9fUbGzoY1pI-57" value="&lt;font style=&quot;font-size: 16px;&quot;&gt;registro-webhook&lt;/font&gt;" style="text;html=1;strokeColor=none;fillColor=none;align=center;verticalAlign=middle;whiteSpace=wrap;rounded=0;fontSize=18;" parent="Cv6GCLbzU9fUbGzoY1pI-56" vertex="1">
          <mxGeometry y="68" width="136" height="22" as="geometry" />
        </mxCell>
        <mxCell id="Cv6GCLbzU9fUbGzoY1pI-58" value="" style="sketch=0;outlineConnect=0;fontColor=#232F3E;gradientColor=none;fillColor=#D45B07;strokeColor=none;dashed=0;verticalLabelPosition=bottom;verticalAlign=top;align=center;html=1;fontSize=12;fontStyle=0;aspect=fixed;pointerEvents=1;shape=mxgraph.aws4.lambda_function;" parent="Cv6GCLbzU9fUbGzoY1pI-56" vertex="1">
          <mxGeometry x="34" width="68" height="68" as="geometry" />
        </mxCell>
        <mxCell id="Cv6GCLbzU9fUbGzoY1pI-59" value="" style="group" parent="1" connectable="0" vertex="1">
          <mxGeometry x="1037.25" y="410" width="110" height="100" as="geometry" />
        </mxCell>
        <mxCell id="Cv6GCLbzU9fUbGzoY1pI-60" value="" style="sketch=0;points=[[0,0,0],[0.25,0,0],[0.5,0,0],[0.75,0,0],[1,0,0],[0,1,0],[0.25,1,0],[0.5,1,0],[0.75,1,0],[1,1,0],[0,0.25,0],[0,0.5,0],[0,0.75,0],[1,0.25,0],[1,0.5,0],[1,0.75,0]];outlineConnect=0;fontColor=#232F3E;gradientColor=#F78E04;gradientDirection=north;fillColor=#D05C17;strokeColor=#ffffff;dashed=0;verticalLabelPosition=bottom;verticalAlign=top;align=center;html=1;fontSize=12;fontStyle=0;aspect=fixed;shape=mxgraph.aws4.resourceIcon;resIcon=mxgraph.aws4.lambda;" parent="Cv6GCLbzU9fUbGzoY1pI-59" vertex="1">
          <mxGeometry x="16" y="-20" width="78" height="78" as="geometry" />
        </mxCell>
        <mxCell id="Cv6GCLbzU9fUbGzoY1pI-61" value="&lt;font style=&quot;font-size: 18px;&quot;&gt;Lambda&lt;/font&gt;" style="text;html=1;strokeColor=none;fillColor=none;align=center;verticalAlign=middle;whiteSpace=wrap;rounded=0;fontSize=18;" parent="Cv6GCLbzU9fUbGzoY1pI-59" vertex="1">
          <mxGeometry y="58" width="110" height="22" as="geometry" />
        </mxCell>
        <mxCell id="Dcz_6EEpheSu6of_Sk2W-1" value="&lt;font style=&quot;font-size: 18px;&quot;&gt;Fluxo de notificação&lt;/font&gt;" style="text;html=1;strokeColor=none;fillColor=none;align=center;verticalAlign=middle;whiteSpace=wrap;rounded=0;fontSize=16;" vertex="1" parent="1">
          <mxGeometry x="1277.18" y="145" width="172" height="34" as="geometry" />
        </mxCell>
      </root>
    </mxGraphModel>
  </diagram>
</mxfile>
